<svg width="19" height="22" viewBox="0 0 19 22" fill="none" xmlns="http://www.w3.org/2000/svg">
<path d="M8.44954 21.5583C7.96954 21.5583 7.49955 21.4383 7.05955 21.1983C6.63166 20.9657 6.27468 20.6217 6.02645 20.2027C5.77821 19.7837 5.64798 19.3053 5.64955 18.8183V13.5183C5.64955 13.0183 5.31955 12.2683 5.00955 11.8883L1.26955 7.9283C0.639546 7.2983 0.159546 6.2183 0.159546 5.4083V3.1083C0.159546 1.5083 1.36955 0.258301 2.90955 0.258301H16.1095C17.6295 0.258301 18.8595 1.4883 18.8595 3.0083V5.2083C18.8595 6.2583 18.2295 7.4483 17.6395 8.0383L13.3095 11.8683C12.8895 12.2183 12.5595 12.9883 12.5595 13.6083V17.9083C12.5595 18.7983 11.9995 19.8283 11.2995 20.2483L9.91955 21.1383C9.46955 21.4183 8.95955 21.5583 8.44954 21.5583ZM2.90955 1.7583C2.20955 1.7583 1.65955 2.3483 1.65955 3.1083V5.4083C1.65955 5.7783 1.95955 6.4983 2.33955 6.8783L6.14955 10.8883C6.65955 11.5183 7.15955 12.5683 7.15955 13.5083V18.8083C7.15955 19.4583 7.60955 19.7783 7.79955 19.8783C8.21955 20.1083 8.72954 20.1083 9.11954 19.8683L10.5095 18.9783C10.7895 18.8083 11.0695 18.2683 11.0695 17.9083V13.6083C11.0695 12.5383 11.5895 11.3583 12.3395 10.7283L16.6195 6.9383C16.9595 6.5983 17.3695 5.7883 17.3695 5.1983V3.0083C17.3695 2.3183 16.8095 1.7583 16.1195 1.7583H2.90955Z" fill="#2C6BCA"/>
<path d="M3.50959 9.65723C3.36909 9.65501 3.23146 9.61716 3.10959 9.54722C2.94094 9.44019 2.82121 9.27107 2.7763 9.07644C2.73139 8.88182 2.7649 8.67733 2.86959 8.50723L7.79959 0.607225C7.85146 0.523835 7.91925 0.45148 7.99908 0.394288C8.07892 0.337097 8.16924 0.296191 8.26488 0.273905C8.36052 0.251619 8.45962 0.248389 8.55651 0.264401C8.65341 0.280413 8.7462 0.315353 8.82959 0.367225C8.91297 0.419097 8.98533 0.486886 9.04252 0.566721C9.09971 0.646557 9.14062 0.736875 9.16291 0.832519C9.18519 0.928163 9.18842 1.02726 9.17241 1.12415C9.1564 1.22105 9.12146 1.31384 9.06959 1.39722L4.13959 9.29722C3.99959 9.52722 3.75959 9.65723 3.50959 9.65723Z" fill="#2C6BCA"/>
</svg>
