<svg width="23" height="23" viewBox="0 0 23 23" fill="none" xmlns="http://www.w3.org/2000/svg">
<path d="M13.2543 3.06971L15.0143 6.58971C15.2543 7.07971 15.8943 7.54971 16.4343 7.63971L19.6243 8.16971C21.6643 8.50971 22.1443 9.98971 20.6743 11.4497L18.1943 13.9297C17.7743 14.3497 17.5443 15.1597 17.6743 15.7397L18.3843 18.8097C18.9443 21.2397 17.6543 22.1797 15.5043 20.9097L12.5143 19.1397C11.9743 18.8197 11.0843 18.8197 10.5343 19.1397L7.54432 20.9097C5.40432 22.1797 4.10432 21.2297 4.66432 18.8097L5.37432 15.7397C5.50432 15.1597 5.27432 14.3497 4.85432 13.9297L2.37432 11.4497C0.914323 9.98971 1.38432 8.50971 3.42432 8.16971L6.61432 7.63971C7.14432 7.54971 7.78432 7.07971 8.02432 6.58971L9.78432 3.06971C10.7443 1.15971 12.3043 1.15971 13.2543 3.06971Z" fill="#EBCC24" stroke="#EBCC24" stroke-width="1.5" stroke-linecap="round" stroke-linejoin="round"/>
</svg>
